<svg id="visual" viewBox="0 0 900 600" width="900" height="600" xmlns="http://www.w3.org/2000/svg" xmlns:xlink="http://www.w3.org/1999/xlink" version="1.1"><rect x="0" y="0" width="900" height="600" fill="#2b0030"></rect><path d="M0 390L21.5 397.3C43 404.7 86 419.3 128.8 425.8C171.7 432.3 214.3 430.7 257.2 420.5C300 410.3 343 391.7 385.8 382.3C428.7 373 471.3 373 514.2 383.2C557 393.3 600 413.7 642.8 422.2C685.7 430.7 728.3 427.3 771.2 416.3C814 405.3 857 386.7 878.5 377.3L900 368L900 601L878.5 601C857 601 814 601 771.2 601C728.3 601 685.7 601 642.8 601C600 601 557 601 514.2 601C471.3 601 428.7 601 385.8 601C343 601 300 601 257.2 601C214.3 601 171.7 601 128.8 601C86 601 43 601 21.5 601L0 601Z" fill="#a52aa9"></path><path d="M0 415L21.5 412.5C43 410 86 405 128.8 401.3C171.7 397.7 214.3 395.3 257.2 407.8C300 420.3 343 447.7 385.8 449.7C428.7 451.7 471.3 428.3 514.2 416.7C557 405 600 405 642.8 414.8C685.7 424.7 728.3 444.3 771.2 448.8C814 453.3 857 442.7 878.5 437.3L900 432L900 601L878.5 601C857 601 814 601 771.2 601C728.3 601 685.7 601 642.8 601C600 601 557 601 514.2 601C471.3 601 428.7 601 385.8 601C343 601 300 601 257.2 601C214.3 601 171.7 601 128.8 601C86 601 43 601 21.5 601L0 601Z" fill="#81258a"></path><path d="M0 465L21.5 462C43 459 86 453 128.8 451C171.7 449 214.3 451 257.2 454.8C300 458.7 343 464.3 385.8 470.8C428.7 477.3 471.3 484.7 514.2 488.7C557 492.7 600 493.3 642.8 487.2C685.7 481 728.3 468 771.2 467.5C814 467 857 479 878.5 485L900 491L900 601L878.5 601C857 601 814 601 771.2 601C728.3 601 685.7 601 642.8 601C600 601 557 601 514.2 601C471.3 601 428.7 601 385.8 601C343 601 300 601 257.2 601C214.3 601 171.7 601 128.8 601C86 601 43 601 21.5 601L0 601Z" fill="#601f6b"></path><path d="M0 489L21.5 488C43 487 86 485 128.8 493.2C171.7 501.3 214.3 519.7 257.2 527.2C300 534.7 343 531.3 385.8 527.8C428.7 524.3 471.3 520.7 514.2 519.7C557 518.7 600 520.3 642.8 521.8C685.7 523.3 728.3 524.7 771.2 520.5C814 516.3 857 506.7 878.5 501.8L900 497L900 601L878.5 601C857 601 814 601 771.2 601C728.3 601 685.7 601 642.8 601C600 601 557 601 514.2 601C471.3 601 428.7 601 385.8 601C343 601 300 601 257.2 601C214.3 601 171.7 601 128.8 601C86 601 43 601 21.5 601L0 601Z" fill="#42174d"></path><path d="M0 556L21.5 551.2C43 546.3 86 536.7 128.8 531.3C171.7 526 214.3 525 257.2 528.2C300 531.3 343 538.7 385.8 547C428.7 555.3 471.3 564.7 514.2 568.2C557 571.7 600 569.3 642.8 568.7C685.7 568 728.3 569 771.2 565.5C814 562 857 554 878.5 550L900 546L900 601L878.5 601C857 601 814 601 771.2 601C728.3 601 685.7 601 642.8 601C600 601 557 601 514.2 601C471.3 601 428.7 601 385.8 601C343 601 300 601 257.2 601C214.3 601 171.7 601 128.8 601C86 601 43 601 21.5 601L0 601Z" fill="#270e30"></path></svg>